<svg width="24" height="24" viewBox="0 0 24 24" fill="none" xmlns="http://www.w3.org/2000/svg">
<path d="M23.027 23.583H1.12096C0.744965 23.583 0.438965 23.275 0.438965 22.898V3.60303C0.438965 3.22803 0.744965 2.92203 1.12096 2.92203H5.68796V1.26703C5.68796 0.890031 5.99396 0.582031 6.36996 0.582031C6.74696 0.582031 7.05296 0.890031 7.05296 1.26703V2.92203H16.939V1.26703C16.939 0.890031 17.246 0.582031 17.622 0.582031C17.998 0.582031 18.305 0.890031 18.305 1.26703V2.92203H23.029C23.405 2.92203 23.712 3.22803 23.712 3.60303V22.899C23.71 23.275 23.403 23.583 23.027 23.583ZM1.80296 22.213H22.344V7.31703H1.80296V22.213ZM1.80296 5.95203H22.344V4.29003H18.304V5.25503C18.304 5.63203 17.997 5.94103 17.621 5.94103C17.245 5.94103 16.938 5.63203 16.938 5.25503V4.29003H7.05196V5.25503C7.05196 5.63203 6.74596 5.94103 6.36896 5.94103C5.99296 5.94103 5.68696 5.63203 5.68696 5.25503V4.29003H1.80296V5.95203ZM17.477 3.60503C17.538 3.63803 17.588 3.68803 17.622 3.74903C17.655 3.68803 17.706 3.63903 17.767 3.60503C17.706 3.57303 17.656 3.52303 17.622 3.46203C17.588 3.52303 17.537 3.57303 17.477 3.60503ZM6.22596 3.60503C6.28696 3.63903 6.33596 3.68803 6.36996 3.74903C6.40496 3.68803 6.45396 3.63903 6.51596 3.60503C6.45396 3.57303 6.40496 3.52303 6.36996 3.46303C6.33596 3.52303 6.28696 3.57303 6.22596 3.60503Z" fill="#F8A71B"/>
<path d="M23.027 23.9462H1.12095C0.543951 23.9462 0.0749512 23.4762 0.0749512 22.8982V3.60324C0.0749512 3.02724 0.544951 2.55824 1.12095 2.55824H5.32495V1.26724C5.32495 0.688238 5.79395 0.219238 6.36995 0.219238C6.94795 0.219238 7.41695 0.689238 7.41695 1.26724V2.55824H16.5739V1.26724C16.5739 0.688238 17.045 0.219238 17.621 0.219238C18.198 0.219238 18.667 0.689238 18.667 1.26724V2.55824H23.027C23.604 2.55824 24.0739 3.02724 24.0739 3.60324V22.8992C24.0739 23.4772 23.604 23.9462 23.027 23.9462ZM1.12095 3.28524C0.945951 3.28524 0.802951 3.42924 0.802951 3.60224V22.8982C0.802951 23.0742 0.945951 23.2182 1.12095 23.2182H23.028C23.204 23.2182 23.346 23.0732 23.346 22.8982V3.60324C23.346 3.42924 23.2029 3.28624 23.028 3.28624H18.304C18.102 3.28624 17.9389 3.12424 17.9389 2.92324V1.26724C17.9389 1.09124 17.7969 0.947238 17.622 0.947238C17.447 0.947238 17.304 1.09124 17.304 1.26724V2.92224C17.304 3.12324 17.141 3.28524 16.94 3.28524H7.05195C6.85095 3.28524 6.68895 3.12324 6.68895 2.92224V1.26724C6.68895 1.09124 6.54595 0.947238 6.36995 0.947238C6.19595 0.947238 6.05295 1.09124 6.05295 1.26724V2.92224C6.05295 3.12324 5.88995 3.28524 5.68895 3.28524H1.12095ZM22.344 22.5772H1.80295C1.60095 22.5772 1.43995 22.4142 1.43995 22.2132V7.31724C1.43995 7.11724 1.60195 6.95424 1.80295 6.95424H22.344C22.5459 6.95424 22.709 7.11724 22.709 7.31724V22.2132C22.709 22.4142 22.5459 22.5772 22.344 22.5772ZM2.16695 21.8492H21.9799V7.68324H2.16695V21.8492ZM22.344 6.31724H1.80295C1.60095 6.31724 1.43995 6.15424 1.43995 5.95224V4.29024C1.43995 4.08924 1.60195 3.92624 1.80295 3.92624H5.68795C5.88995 3.92624 6.05195 4.08924 6.05195 4.29024V5.25524C6.05195 5.43324 6.19495 5.57524 6.36895 5.57524C6.54495 5.57524 6.68795 5.43224 6.68795 5.25524V4.29024C6.68795 4.08924 6.85095 3.92624 7.05095 3.92624H16.937C17.138 3.92624 17.301 4.08924 17.301 4.29024V5.25524C17.301 5.43324 17.444 5.57524 17.6189 5.57524C17.7939 5.57524 17.936 5.43224 17.936 5.25524V4.29024C17.936 4.08924 18.099 3.92624 18.301 3.92624H22.341C22.5429 3.92624 22.7059 4.08924 22.7059 4.29024V5.95224C22.709 6.15424 22.5459 6.31724 22.344 6.31724ZM18.613 5.58924H21.9799V4.65424H18.667V5.25524C18.667 5.37324 18.648 5.48424 18.613 5.58924ZM7.36295 5.58924H16.628C16.594 5.48524 16.5739 5.37324 16.5739 5.25524V4.65424H7.41695V5.25524C7.41695 5.37324 7.39795 5.48424 7.36295 5.58924ZM2.16695 5.58924H5.37795C5.34295 5.48424 5.32395 5.37324 5.32395 5.25524V4.65424H2.16695V5.58924ZM17.621 4.11224C17.62 4.11224 17.6189 4.11224 17.6189 4.11224C17.4869 4.11224 17.3659 4.04024 17.3029 3.92424C17.184 3.86124 17.1119 3.73924 17.1119 3.60524C17.1119 3.47124 17.186 3.34724 17.305 3.28524C17.368 3.16924 17.489 3.09824 17.62 3.09724C17.621 3.09724 17.621 3.09724 17.621 3.09724C17.753 3.09724 17.873 3.16824 17.937 3.28424C17.938 3.28524 17.938 3.28524 17.938 3.28524C18.0569 3.34824 18.129 3.47324 18.129 3.60624C18.129 3.74124 18.056 3.86324 17.936 3.92624C17.873 4.04124 17.7509 4.11224 17.621 4.11224ZM6.36995 4.11224C6.23695 4.11224 6.11595 4.04024 6.05195 3.92424C5.93295 3.86224 5.85995 3.74024 5.85995 3.60524C5.85995 3.47124 5.93595 3.34724 6.05295 3.28524C6.11795 3.16924 6.23795 3.09924 6.36995 3.09824C6.48295 3.10124 6.62195 3.16924 6.68695 3.28524C6.68795 3.28624 6.68895 3.28624 6.68895 3.28624C6.80695 3.34924 6.87995 3.47324 6.87995 3.60624C6.87995 3.74124 6.80495 3.86324 6.68695 3.92624C6.62295 4.04124 6.50095 4.11224 6.36995 4.11224Z" fill="#F8A71B"/>
</svg>
