<svg width="24" height="24" viewBox="0 0 24 24" fill="none" xmlns="http://www.w3.org/2000/svg">
<path d="M12.0031 23.5972C11.8361 23.5972 11.6811 23.5432 11.5541 23.4432C10.4111 22.5152 0.404053 14.2022 0.404053 7.21016C0.404053 3.96016 2.09505 1.54116 4.81705 0.897161C7.41705 0.283161 10.2811 1.54416 11.9891 3.98516C13.3531 1.97116 15.4811 0.788161 17.7901 0.788161C18.2471 0.788161 18.6941 0.837161 19.1191 0.935161C22.4201 1.68616 23.5971 4.66916 23.5971 7.20916C23.5971 10.2552 21.7061 13.9232 17.9761 18.1122C15.4821 20.9122 12.9511 23.0292 12.4691 23.4252C12.3141 23.5432 12.1581 23.5972 12.0031 23.5972ZM6.22705 2.16116C5.85905 2.16116 5.50505 2.20216 5.14505 2.28716C3.07005 2.78016 1.83205 4.62016 1.83205 7.21016C1.83205 12.9362 10.1601 20.3762 12.0021 21.9512C13.8441 20.3712 22.1681 12.9112 22.1681 7.21016C22.1681 4.63216 20.9101 2.80816 18.8041 2.32916C18.4811 2.25716 18.1411 2.21916 17.7911 2.21916C15.6161 2.21916 13.6931 3.52416 12.6471 5.70916C12.5181 5.96016 12.2741 6.11216 12.0041 6.11216C11.7341 6.11216 11.4871 5.96016 11.3641 5.72416C10.4751 3.94816 8.54405 2.16116 6.22705 2.16116Z" fill="#F8A71B"/>
<path d="M12.003 24.0001C11.744 24.0001 11.502 23.9171 11.302 23.7581C10.143 22.8181 0 14.3851 0 7.21014C0 3.76314 1.811 1.19214 4.724 0.504141C7.256 -0.0958593 10.17 1.05114 11.985 3.30614C13.435 1.44214 15.523 0.386141 17.791 0.386141C18.277 0.386141 18.754 0.439141 19.21 0.543141C22.742 1.34514 24 4.51414 24 7.21014C24 10.3581 22.075 14.1171 18.277 18.3811C15.764 21.2011 13.211 23.3371 12.724 23.7371C12.494 23.9151 12.254 24.0001 12.003 24.0001ZM6.151 1.14714C5.73 1.14714 5.312 1.19514 4.91 1.29014C2.379 1.88914 0.809 4.15714 0.809 7.21014C0.809 14.0101 10.683 22.2141 11.808 23.1271C11.862 23.1681 11.928 23.1911 12.003 23.1911C12.048 23.1911 12.121 23.1821 12.223 23.1031C12.691 22.7191 15.202 20.6181 17.675 17.8421C21.336 13.7311 23.193 10.1531 23.193 7.20914C23.193 4.82514 22.099 2.02614 19.029 1.32814C18.633 1.23814 18.216 1.19114 17.791 1.19114C15.619 1.19114 13.626 2.29214 12.324 4.21014C12.249 4.32114 12.118 4.37314 11.99 4.38814C11.859 4.38814 11.735 4.32414 11.659 4.21714C10.334 2.32414 8.223 1.14714 6.151 1.14714ZM12.002 22.3541C11.909 22.3541 11.815 22.3231 11.739 22.2571C9.321 20.1881 1.428 12.9901 1.428 7.21014C1.428 4.42014 2.782 2.43214 5.052 1.89414C5.442 1.80214 5.825 1.75714 6.226 1.75714C8.716 1.75714 10.781 3.65914 11.724 5.54414C11.826 5.73914 12.17 5.75114 12.286 5.52614C13.397 3.20614 15.457 1.81614 17.791 1.81614C18.169 1.81614 18.539 1.85614 18.892 1.93514C21.197 2.46014 22.573 4.43214 22.573 7.21114C22.573 12.9701 14.683 20.1841 12.265 22.2581C12.189 22.3231 12.096 22.3541 12.002 22.3541ZM6.227 2.56414C5.89 2.56414 5.565 2.60214 5.239 2.68014C3.359 3.12614 2.237 4.82014 2.237 7.21014C2.237 12.5361 9.862 19.5511 12.003 21.4181C14.143 19.5481 21.766 12.5151 21.766 7.21014C21.766 4.83514 20.625 3.15614 18.716 2.72314C18.421 2.65714 18.111 2.62314 17.792 2.62314C15.776 2.62314 13.989 3.84214 13.012 5.88314C12.812 6.27614 12.429 6.51514 12.006 6.51514C11.586 6.51514 11.203 6.28414 11.008 5.91114C10.17 4.24314 8.371 2.56414 6.227 2.56414Z" fill="#F8A71B"/>
</svg>
