<svg width="24" height="24" viewBox="0 0 24 24" fill="none" xmlns="http://www.w3.org/2000/svg">
<g clip-path="url(#clip0)">
<rect width="24" height="24" fill="#F8A71B"/>
<path d="M12.208 0.801059C12.097 0.688059 11.899 0.688059 11.787 0.801059L0.814033 11.7711C0.699033 11.8881 0.699033 12.0741 0.814033 12.1941C0.932033 12.3081 1.12103 12.3081 1.23603 12.1941L3.67403 9.75406V9.29206C3.67403 9.12706 3.80703 8.99306 3.97403 8.99306C4.09903 8.99306 4.20503 9.07206 4.24803 9.18206L11.998 1.43306L19.746 9.18206C19.789 9.07206 19.894 8.99306 20.021 8.99306C20.187 8.99306 20.32 9.12706 20.32 9.29206V9.75606L22.758 12.1941C22.817 12.2521 22.893 12.2811 22.969 12.2811C23.047 12.2811 23.121 12.2521 23.182 12.1941C23.297 12.0741 23.297 11.8881 23.182 11.7711L12.208 0.801059Z" fill="#FFFDFD"/>
<path d="M22.969 12.6461C22.791 12.6461 22.625 12.5781 22.5 12.4531L19.953 9.90707V9.65707L19.885 9.83707L11.998 1.95007L4.11403 9.83307L4.04103 9.64707V9.90507L1.49503 12.4511C1.24403 12.7001 0.811026 12.7001 0.560026 12.4551C0.299026 12.1831 0.300026 11.7731 0.553026 11.5161L11.528 0.542074C11.649 0.420074 11.82 0.351074 11.997 0.351074C12.175 0.351074 12.347 0.421074 12.468 0.544074L23.439 11.5131C23.697 11.7731 23.699 12.1841 23.443 12.4481C23.313 12.5761 23.146 12.6461 22.969 12.6461Z" fill="#FFFDFD"/>
<path d="M22.969 12.6461C22.791 12.6461 22.625 12.5781 22.5 12.4531L20.061 10.0141C19.993 9.94607 19.954 9.85307 19.954 9.75607V9.48207C19.915 9.50908 19.87 9.52907 19.823 9.53807C19.704 9.56207 19.577 9.52607 19.489 9.43907L11.999 1.94807L4.507 9.44007C4.421 9.52607 4.296 9.56707 4.175 9.53907C4.126 9.52907 4.081 9.50907 4.041 9.48107V9.75307C4.041 9.85007 4.002 9.94307 3.934 10.0121L1.496 12.4511C1.246 12.7011 0.812003 12.7001 0.561003 12.4551C0.300003 12.1831 0.301003 11.7731 0.554003 11.5161L11.528 0.542074C11.649 0.420074 11.82 0.351074 11.997 0.351074C12.175 0.351074 12.347 0.421074 12.468 0.544074L23.439 11.5131C23.697 11.7731 23.699 12.1841 23.443 12.4481C23.313 12.5761 23.146 12.6461 22.969 12.6461Z" fill="#FFFDFD"/>
<path d="M22.969 13.0109C22.694 13.0109 22.438 12.9049 22.242 12.7119L19.803 10.2719C19.699 10.1679 19.631 10.0369 19.602 9.89688C19.461 9.86788 19.331 9.79988 19.229 9.69788L11.999 2.46688L4.76603 9.69788C4.66303 9.79988 4.53103 9.87088 4.39203 9.89888C4.36403 10.0389 4.29503 10.1669 4.19203 10.2699L1.75303 12.7099C1.37403 13.0879 0.687029 13.0909 0.304029 12.7169C-0.098971 12.2959 -0.099971 11.6599 0.291029 11.2589L11.27 0.282878C11.647 -0.0951219 12.353 -0.0951219 12.729 0.287878L23.697 11.2539C24.097 11.6579 24.101 12.2929 23.705 12.7009C23.504 12.9019 23.244 13.0109 22.969 13.0109ZM20.32 8.91088V9.75588L22.758 12.1949C22.873 12.3099 23.065 12.3099 23.184 12.1889C23.299 12.0719 23.297 11.8899 23.18 11.7699L20.32 8.91088ZM3.67503 8.91088L0.811029 11.7739C0.698029 11.8909 0.702029 12.0759 0.823029 12.2029C0.909029 12.2859 1.13403 12.2949 1.23703 12.1929L3.67503 9.75388V8.91088ZM11.998 1.43288L19.746 9.18188L20.246 8.83688L12.21 0.802878C12.102 0.692878 11.893 0.694878 11.788 0.800878L3.74603 8.83988L4.24603 9.17888L11.998 1.43288Z" fill="#FFFDFD"/>
<path d="M19.725 9.29166V21.8887H15.026V14.2927C15.026 14.1287 14.893 13.9927 14.729 13.9927H9.26705C9.10205 13.9927 8.96905 14.1287 8.96905 14.2927V21.8887H4.27105V9.29166C4.27105 9.25066 4.26305 9.21366 4.24905 9.18166L3.67505 9.75266V22.1847C3.67505 22.3497 3.80805 22.4837 3.97505 22.4837H9.26705C9.43405 22.4837 9.56605 22.3497 9.56605 22.1847V14.5897H14.432V22.1857C14.432 22.3507 14.565 22.4847 14.729 22.4847H20.022C20.188 22.4847 20.321 22.3507 20.321 22.1857V9.75466L19.747 9.18066C19.734 9.21566 19.725 9.25166 19.725 9.29166Z" fill="#FFFDFD"/>
<path d="M20.0211 22.8509H14.7281C14.3631 22.8509 14.0661 22.5519 14.0661 22.1859V14.9559H9.93106V22.1859C9.93106 22.5519 9.63306 22.8509 9.26706 22.8509H3.97506C3.60806 22.8509 3.31006 22.5519 3.31006 22.1859V9.60188L4.37806 8.53588L4.58606 9.04188C4.61906 9.12188 4.63606 9.20488 4.63606 9.29188V21.5239H8.60306V14.2939C8.60306 13.9279 8.90106 13.6289 9.26706 13.6289H14.7291C15.0941 13.6289 15.3911 13.9279 15.3911 14.2939V21.5239H19.3601V9.29188C19.3601 9.21088 19.3761 9.12988 19.4071 9.04988L19.6081 8.52588L20.6841 9.60488V22.1869C20.6841 22.5519 20.3871 22.8509 20.0211 22.8509Z" fill="#FFFDFD"/>
<path d="M20.0211 22.8509H14.7281C14.3631 22.8509 14.0661 22.5519 14.0661 22.1859V14.9559H9.93106V22.1859C9.93106 22.5519 9.63306 22.8509 9.26706 22.8509H3.97506C3.60806 22.8509 3.31006 22.5519 3.31006 22.1859V9.75291C3.31006 9.65591 3.34906 9.56291 3.41706 9.49491L3.99106 8.92191C4.07706 8.83591 4.20006 8.79691 4.32106 8.82191C4.44006 8.84791 4.54006 8.92891 4.58606 9.04191C4.61906 9.12191 4.63606 9.20491 4.63606 9.29191V21.5239H8.60306V14.2939C8.60306 13.9279 8.90106 13.6289 9.26706 13.6289H14.7291C15.0941 13.6289 15.3911 13.9279 15.3911 14.2939V21.5239H19.3601V9.29191C19.3601 9.21091 19.3761 9.12991 19.4071 9.04991C19.4501 8.93391 19.5501 8.84991 19.6731 8.82391C19.7941 8.79891 19.9191 8.83591 20.0071 8.92291L20.5791 9.49691C20.6471 9.56591 20.6841 9.65791 20.6841 9.75591V22.1859C20.6841 22.5519 20.3871 22.8509 20.0211 22.8509Z" fill="#FFFDFD"/>
<path d="M20.0211 23.2158H14.7281C14.1621 23.2158 13.6991 22.7528 13.6991 22.1858V15.3218H10.2961V22.1858C10.2961 22.7528 9.83509 23.2158 9.26709 23.2158H3.97509C3.40709 23.2158 2.94409 22.7528 2.94409 22.1858V9.75283C2.94409 9.55783 3.02109 9.37383 3.15909 9.23483L3.73309 8.66383C3.90409 8.49183 4.15409 8.41583 4.39509 8.46483C4.63309 8.51283 4.83209 8.67583 4.92409 8.90283C4.97509 9.02583 5.00109 9.15683 5.00109 9.29083V21.1568H8.23709V14.2928C8.23709 13.7248 8.69909 13.2618 9.26609 13.2618H14.7281C15.2941 13.2618 15.7551 13.7248 15.7551 14.2928V21.1568H18.9931V9.29183C18.9931 9.16683 19.0161 9.04083 19.0631 8.91783C19.1531 8.68783 19.3501 8.51883 19.5941 8.46683C19.8461 8.41483 20.0881 8.49183 20.2621 8.66383L20.8361 9.23883C20.9731 9.37683 21.0491 9.55983 21.0491 9.75583V22.1858C21.0511 22.7528 20.5881 23.2158 20.0211 23.2158ZM9.56509 14.5898H14.4311V22.1858C14.4311 22.3508 14.5641 22.4848 14.7281 22.4848H20.0211C20.1851 22.4848 20.3201 22.3508 20.3201 22.1858V9.75483L19.7461 9.18083C19.7321 9.21883 19.7251 9.25583 19.7251 9.29083V21.8878H15.0261V14.2918C15.0261 14.1268 14.8931 13.9918 14.7291 13.9918H9.26709C9.10209 13.9918 8.96909 14.1268 8.96909 14.2918V21.8878H4.27109V9.29183C4.27109 9.25283 4.26409 9.21783 4.24909 9.18283L3.67509 9.75283V22.1848C3.67509 22.3498 3.80909 22.4838 3.97509 22.4838H9.26709C9.43209 22.4838 9.56609 22.3498 9.56609 22.1848V14.5898H9.56509Z" fill="#FFFDFD"/>
<path d="M3.97505 8.99219C3.80805 8.99219 3.67505 9.12619 3.67505 9.29119V9.75319L4.24905 9.18119C4.20605 9.07119 4.09905 8.99219 3.97505 8.99219Z" fill="#FFFDFD"/>
<path d="M3.31006 10.634V9.29195C3.31006 8.92595 3.60806 8.62695 3.97506 8.62695C4.24706 8.62695 4.48806 8.79195 4.58906 9.04595L4.67806 9.27095L3.31006 10.634Z" fill="#FFFDFD"/>
<path d="M20.0211 8.99219C19.8941 8.99219 19.7891 9.07119 19.7461 9.18119L20.3201 9.75519V9.29219C20.3201 9.12619 20.1881 8.99219 20.0211 8.99219Z" fill="#FFFDFD"/>
<path d="M20.6841 10.638L19.3201 9.27095L19.4061 9.04795C19.5061 8.79295 19.7461 8.62695 20.0211 8.62695C20.3861 8.62695 20.6831 8.92495 20.6831 9.29195V10.638H20.6841Z" fill="#FFFDFD"/>
</g>
<defs>
<clipPath id="clip0">
<rect width="24" height="24" fill="#F8A71B"/>
</clipPath>
</defs>
</svg>
