<svg width="24" height="24" viewBox="0 0 24 24" fill="none" xmlns="http://www.w3.org/2000/svg">
<g clip-path="url(#clip0)">
<path d="M18.643 0.895016C18.587 0.830016 18.507 0.791016 18.424 0.791016H14.432C14.283 0.791016 14.161 0.908016 14.138 1.06802C13.963 2.34402 13.05 3.27302 11.968 3.27402C10.885 3.27302 9.97201 2.34402 9.79601 1.06802C9.77501 0.907016 9.65101 0.791016 9.50201 0.791016H5.51001C5.42801 0.791016 5.35001 0.830016 5.29301 0.895016L3.21401 3.31902L1.89001 3.67902C1.73401 3.71502 1.63001 3.88602 1.66101 4.05702C1.68701 4.21102 1.81001 4.32502 1.95201 4.32502C1.97401 4.32502 1.99401 4.32002 2.02901 4.31302L2.51701 4.18002L0.83801 6.16602C0.73401 6.29302 0.73401 6.48502 0.83801 6.60902L4.10601 10.475C4.21801 10.608 4.43201 10.608 4.54301 10.475L5.21401 9.68301V21.943C5.21401 22.125 5.34601 22.269 5.51001 22.269L11.963 22.283L13.134 23.15C13.184 23.187 13.241 23.207 13.302 23.207C13.406 23.207 13.504 23.144 13.557 23.047C13.629 22.91 13.603 22.74 13.498 22.639L13.473 22.584H13.431L13.006 22.27H18.426C18.589 22.27 18.723 22.125 18.723 21.944V9.68202L19.393 10.475C19.49 10.589 19.662 10.612 19.777 10.525H19.862V10.437L21.219 8.82201L22.598 8.44702C22.755 8.40602 22.852 8.23702 22.822 8.06602C22.794 7.91702 22.676 7.81002 22.529 7.80402C22.502 7.80402 22.474 7.80902 22.456 7.81502L21.967 7.94802L23.097 6.60902C23.203 6.48702 23.203 6.29302 23.097 6.16502L18.643 0.895016ZM21.585 7.43902L21.695 6.87402C21.73 6.70102 21.636 6.53302 21.48 6.48702C21.464 6.48402 21.438 6.47502 21.405 6.47502C21.265 6.47502 21.143 6.58602 21.115 6.73502L20.801 8.36702L19.612 9.77501L18.641 8.62802C18.585 8.56202 18.506 8.52502 18.419 8.52502C18.256 8.52802 18.127 8.67102 18.127 8.85202V21.617H13.007L13.465 21.277C13.596 21.183 13.639 20.994 13.563 20.845C13.479 20.683 13.265 20.634 13.134 20.736L11.93 21.631L5.80701 21.617V8.85202C5.80701 8.67302 5.67401 8.52702 5.50801 8.52702C5.42601 8.52702 5.35001 8.56402 5.29301 8.63102L4.32501 9.77602L1.46101 6.38702L2.89701 4.68802L2.78601 5.25502C2.75401 5.43002 2.85201 5.59802 3.00801 5.63902L3.07801 5.64702C3.21801 5.64702 3.33701 5.54302 3.36801 5.39302L3.69001 3.72402C3.69101 3.72202 3.69001 3.71802 3.69001 3.71702L5.64101 1.44202H9.27801C9.59401 2.90902 10.686 3.92302 11.967 3.92502C13.249 3.92202 14.338 2.90902 14.654 1.44202H18.295L22.474 6.38702L21.585 7.43902Z" fill="#F8A71B"/>
<path d="M13.302 23.6051C13.155 23.6051 13.014 23.5581 12.895 23.4681L11.831 22.6811L5.51102 22.6651C5.12902 22.6651 4.81802 22.3411 4.81802 21.9421V10.7661C4.55702 11.0381 4.05502 11.0271 3.80502 10.7331L0.535017 6.86709C0.308017 6.59309 0.307017 6.18409 0.532017 5.91409L1.61502 4.63209C1.43802 4.52809 1.30702 4.34609 1.26802 4.12509C1.20202 3.75009 1.44002 3.37509 1.80002 3.29209L2.99202 2.96709L4.99102 0.63509C5.13202 0.47909 5.31902 0.39309 5.51102 0.39309H9.50302C9.85402 0.39309 10.144 0.65509 10.19 1.01609C10.339 2.09209 11.087 2.87409 11.969 2.87609C12.849 2.87409 13.596 2.09209 13.744 1.01209C13.793 0.65309 14.082 0.39209 14.432 0.39209H18.424C18.622 0.39209 18.813 0.48109 18.945 0.63509L23.4 5.90709C23.629 6.18609 23.629 6.59709 23.4 6.86809L22.864 7.50009C23.044 7.60309 23.173 7.77809 23.212 7.99309C23.28 8.37109 23.054 8.73909 22.696 8.83109L21.444 9.17309L20.255 10.5871C20.226 10.7721 20.069 10.9151 19.878 10.9231C19.629 11.0291 19.313 10.9661 19.121 10.7671V21.9431C19.121 22.3411 18.808 22.6661 18.426 22.6661H13.965C14.02 22.8501 14.003 23.0551 13.908 23.2341C13.788 23.4611 13.556 23.6051 13.302 23.6051ZM12.174 21.9451C12.182 21.9511 12.191 21.9571 12.198 21.9631L12.607 22.2661C12.607 22.2251 12.614 22.1841 12.627 22.1451C12.655 22.0611 12.708 21.9911 12.778 21.9421C12.709 21.8971 12.656 21.8251 12.629 21.7431C12.615 21.7041 12.608 21.6631 12.608 21.6241L12.174 21.9451ZM6.20502 21.2211L11.797 21.2351L12.899 20.4171C13.184 20.1921 13.73 20.3041 13.917 20.6651C14.008 20.8431 14.021 21.0421 13.968 21.2221H17.732V8.85209C17.732 8.45309 18.031 8.13509 18.414 8.12709C18.627 8.12709 18.813 8.21309 18.947 8.37009L19.613 9.15709L20.432 8.18909L20.726 6.65909C20.79 6.32209 21.077 6.07709 21.407 6.07709C21.436 6.07709 21.529 6.08909 21.557 6.09509C21.656 6.12409 21.745 6.16809 21.819 6.22709L18.109 1.84009H14.963C14.525 3.31409 13.331 4.32009 11.969 4.32309C10.604 4.32209 9.40902 3.31509 8.97002 1.84009H5.82502L4.06302 3.89509L3.75902 5.46709C3.68802 5.81109 3.40902 6.04409 3.07902 6.04409C3.06402 6.04409 2.97902 6.03609 2.96502 6.03509C2.77502 5.98509 2.62402 5.88209 2.52402 5.74609L1.98202 6.38709L4.32502 9.16009L4.98902 8.37409C5.12502 8.21509 5.30902 8.12809 5.50802 8.12809C5.89302 8.12809 6.20502 8.45209 6.20502 8.85209V21.2211ZM21.327 7.74209L21.197 8.41609L21.732 8.27009C21.693 8.24209 21.658 8.20609 21.63 8.16209C21.567 8.06309 21.552 7.94609 21.582 7.83809C21.525 7.83809 21.468 7.82509 21.413 7.79909C21.383 7.78209 21.354 7.76309 21.327 7.74209ZM2.89902 4.29109C2.95702 4.29109 3.01402 4.30409 3.06902 4.33009C3.10102 4.34509 3.13102 4.36609 3.15702 4.38909L3.28702 3.71209L2.75002 3.85709C2.79002 3.88609 2.82502 3.92309 2.85302 3.96709C2.91602 4.06509 2.93002 4.18309 2.89902 4.29109Z" fill="#F8A71B"/>
<path d="M13.302 23.6051C13.155 23.6051 13.014 23.5581 12.895 23.4681L11.831 22.6811L5.51102 22.6651C5.12902 22.6651 4.81802 22.3411 4.81802 21.9421V10.7661C4.55702 11.0371 4.05502 11.0281 3.80502 10.7331L0.535017 6.86709C0.308017 6.59309 0.307017 6.18409 0.532017 5.91409L1.61502 4.63209C1.43802 4.52809 1.30702 4.34609 1.26802 4.12509C1.20202 3.75009 1.44002 3.37509 1.80002 3.29209L2.99202 2.96709L4.99102 0.63509C5.13202 0.47909 5.31902 0.39309 5.51102 0.39309H9.50302C9.85402 0.39309 10.144 0.65509 10.19 1.01609C10.339 2.09209 11.087 2.87409 11.969 2.87609C12.849 2.87409 13.596 2.09209 13.744 1.01209C13.793 0.65309 14.082 0.39209 14.432 0.39209H18.424C18.622 0.39209 18.813 0.48109 18.945 0.63509L23.4 5.90709C23.629 6.18609 23.629 6.59709 23.4 6.86809L22.864 7.50009C23.044 7.60309 23.173 7.77809 23.212 7.99309C23.28 8.37109 23.054 8.73909 22.696 8.83109L21.444 9.17309L20.255 10.5871C20.226 10.7721 20.069 10.9151 19.878 10.9231C19.628 11.0291 19.314 10.9661 19.121 10.7671V21.9431C19.121 22.3411 18.808 22.6661 18.426 22.6661H13.965C14.02 22.8501 14.003 23.0551 13.908 23.2341C13.788 23.4611 13.556 23.6051 13.302 23.6051ZM12.174 21.9451C12.182 21.9511 12.191 21.9571 12.198 21.9631L12.607 22.2661C12.607 22.2251 12.614 22.1841 12.627 22.1451C12.655 22.0611 12.708 21.9911 12.778 21.9421C12.709 21.8971 12.656 21.8251 12.629 21.7431C12.615 21.7041 12.608 21.6631 12.608 21.6241L12.174 21.9451ZM6.20502 21.2211L11.797 21.2351L12.899 20.4171C13.184 20.1921 13.73 20.3021 13.917 20.6651C14.008 20.8431 14.021 21.0421 13.968 21.2221H17.732V8.85209C17.732 8.45309 18.031 8.13509 18.414 8.12709C18.627 8.12709 18.813 8.21309 18.947 8.37009L19.613 9.15709L20.432 8.18909L20.726 6.65909C20.79 6.32209 21.077 6.07709 21.407 6.07709C21.436 6.07709 21.529 6.08909 21.557 6.09509C21.656 6.12409 21.745 6.16809 21.819 6.22709L18.109 1.84009H14.963C14.525 3.31409 13.331 4.32009 11.969 4.32309C10.604 4.32209 9.40902 3.31509 8.97002 1.84009H5.82502L4.06302 3.89509L3.75902 5.46709C3.68802 5.81109 3.40902 6.04409 3.07902 6.04409C3.06402 6.04409 2.97902 6.03609 2.96502 6.03509C2.77502 5.98509 2.62402 5.88209 2.52402 5.74609L1.98202 6.38709L4.32502 9.16009L4.98902 8.37409C5.12502 8.21509 5.30902 8.12809 5.50802 8.12809C5.89302 8.12809 6.20502 8.45209 6.20502 8.85209V21.2211ZM21.327 7.74209L21.197 8.41609L21.732 8.27009C21.693 8.24209 21.658 8.20609 21.63 8.16209C21.567 8.06309 21.552 7.94609 21.582 7.83809C21.525 7.83809 21.468 7.82509 21.413 7.79909C21.383 7.78209 21.354 7.76309 21.327 7.74209ZM2.89902 4.29109C2.95702 4.29109 3.01402 4.30409 3.06902 4.33009C3.10102 4.34509 3.13102 4.36609 3.15702 4.38909L3.28702 3.71209L2.75002 3.85709C2.79002 3.88609 2.82502 3.92309 2.85302 3.96709C2.91602 4.06509 2.93002 4.18309 2.89902 4.29109Z" fill="#F8A71B"/>
<path d="M13.3019 24.0041C13.0679 24.0041 12.8449 23.9301 12.6559 23.7871L11.6999 23.0781L5.50791 23.0641C4.90691 23.0641 4.41791 22.5621 4.41791 21.9431V11.3571C4.06391 11.3801 3.71691 11.2481 3.49991 10.9911L0.229911 7.12409C-0.118089 6.70309 -0.120089 6.07609 0.224911 5.65909L1.06991 4.66109C0.972911 4.52409 0.905911 4.36509 0.875911 4.19309C0.772911 3.61309 1.14791 3.03509 1.70991 2.90509L2.76991 2.61609L4.68791 0.376094C4.90991 0.132094 5.20591 -0.00390625 5.50991 -0.00390625H9.50191C10.0559 -0.00390625 10.5099 0.403094 10.5839 0.965094C10.7049 1.84009 11.2879 2.47809 11.9679 2.48009C12.6469 2.47809 13.2289 1.83909 13.3499 0.960094C13.4249 0.402094 13.8789 -0.00290625 14.4309 -0.00290625H18.4229C18.7379 -0.00290625 19.0369 0.136094 19.2459 0.379094L23.7029 5.65209C24.0569 6.08009 24.0549 6.71309 23.7009 7.12609L23.4099 7.47109C23.5059 7.60409 23.5709 7.75909 23.6019 7.92409C23.7069 8.50709 23.3509 9.07509 22.7939 9.21909L21.6659 9.52709L20.6169 10.7751C20.5209 11.0631 20.2689 11.2751 19.9669 11.3161C19.8259 11.3651 19.6709 11.3831 19.5169 11.3701V21.9461C19.5169 22.5651 19.0259 23.0671 18.4239 23.0671H14.3799C14.3589 23.1901 14.3179 23.3111 14.2579 23.4221C14.0709 23.7791 13.7039 24.0041 13.3019 24.0041ZM12.0679 22.3611L13.1309 23.1501C13.2759 23.2551 13.4749 23.2031 13.5539 23.0481C13.5989 22.9641 13.6089 22.8681 13.5829 22.7781C13.5469 22.6571 13.5689 22.5281 13.6459 22.4261C13.7209 22.3261 13.8389 22.2681 13.9639 22.2681H18.4249C18.5879 22.2681 18.7219 22.1221 18.7219 21.9421V10.7671C18.7219 10.6051 18.8199 10.4581 18.9709 10.3981C19.1199 10.3361 19.2919 10.3731 19.4059 10.4901C19.4799 10.5671 19.6259 10.5971 19.7199 10.5571C19.7649 10.5381 19.8119 10.5271 19.8609 10.5251C19.8729 10.4541 19.9039 10.3871 19.9499 10.3321L21.1389 8.91809C21.1919 8.85509 21.2599 8.81109 21.3379 8.79009L22.5899 8.44809C22.7529 8.40609 22.8509 8.23909 22.8189 8.06509C22.8009 7.97009 22.7469 7.89309 22.6669 7.84609C22.5629 7.78709 22.4929 7.68609 22.4729 7.57009C22.4519 7.45409 22.4829 7.33409 22.5599 7.24309L23.0949 6.61009C23.2009 6.48709 23.1989 6.29009 23.0929 6.16109L18.6399 0.894094C18.5849 0.829094 18.5049 0.790094 18.4229 0.790094H14.4309C14.2799 0.790094 14.1599 0.904094 14.1379 1.06609C13.9619 2.34309 13.0489 3.27209 11.9679 3.27309C10.8849 3.27209 9.97091 2.34309 9.79491 1.06909C9.77391 0.904094 9.65391 0.791094 9.50191 0.791094H5.50991C5.42891 0.791094 5.34991 0.830094 5.28491 0.902094L3.29391 3.22609C3.24191 3.28709 3.17391 3.33109 3.09691 3.35109L2.75491 3.44509L3.18291 3.32809C3.31491 3.29209 3.45691 3.32709 3.55791 3.42009C3.65891 3.51409 3.70391 3.65109 3.67891 3.78609L3.61991 4.09109L3.67191 3.82009C3.68491 3.75209 3.71491 3.68909 3.75991 3.63609L5.52191 1.58109C5.59791 1.49309 5.70791 1.44209 5.82391 1.44209H8.96991C9.14591 1.44209 9.30091 1.55809 9.35191 1.72709C9.74191 3.04009 10.7929 3.92309 11.9689 3.92509C13.1419 3.92309 14.1919 3.03809 14.5809 1.72709C14.6319 1.55809 14.7869 1.44209 14.9629 1.44209H18.1089C18.2259 1.44209 18.3379 1.49309 18.4129 1.58309L22.1209 5.97009C22.2519 6.12509 22.2449 6.35509 22.1039 6.50209C21.9629 6.64809 21.7339 6.66509 21.5749 6.54209C21.5379 6.51309 21.4939 6.49109 21.4439 6.47809C21.4559 6.48109 21.4179 6.47709 21.3949 6.47509C21.2659 6.47509 21.1439 6.58309 21.1149 6.73409L20.9369 7.65709C20.9669 7.52109 21.0659 7.41109 21.1959 7.36509C21.3299 7.32009 21.4769 7.34609 21.5849 7.43909C21.7099 7.43909 21.8269 7.49809 21.9019 7.59709C21.9759 7.69709 21.9999 7.82609 21.9649 7.94709C22.0899 8.03609 22.1519 8.18909 22.1249 8.34109C22.0969 8.49109 21.9829 8.61309 21.8369 8.65409L21.3009 8.80009C21.1699 8.83609 21.0269 8.80109 20.9269 8.70909C20.8249 8.61509 20.7799 8.47609 20.8069 8.34109L20.8749 7.98609L20.8209 8.26609C20.8069 8.33209 20.7769 8.39609 20.7339 8.44809L19.9139 9.41709C19.7639 9.59709 19.4589 9.59709 19.3059 9.41709L18.6399 8.62909C18.5819 8.56109 18.5049 8.52609 18.4109 8.52609C18.2519 8.52909 18.1259 8.66909 18.1259 8.85309V21.2221C18.1259 21.4411 17.9479 21.6181 17.7299 21.6181H13.9659C13.8409 21.6181 13.7219 21.5591 13.6469 21.4581C13.5719 21.3581 13.5489 21.2281 13.5839 21.1061C13.6109 21.0201 13.6029 20.9261 13.5619 20.8461C13.4969 20.7191 13.2019 20.6861 13.1439 20.7291L12.3779 21.2991C12.4949 21.2131 12.6519 21.2031 12.7849 21.2661C12.9179 21.3321 13.0039 21.4691 13.0059 21.6181C13.1119 21.6921 13.1759 21.8131 13.1759 21.9421C13.1759 22.0751 13.1109 22.1961 13.0039 22.2701C13.0029 22.4181 12.9179 22.5551 12.7829 22.6221C12.6499 22.6881 12.4909 22.6751 12.3689 22.5851L12.0679 22.3611ZM4.81591 10.3681C4.86591 10.3681 4.91691 10.3781 4.96491 10.3971C5.11491 10.4581 5.21391 10.6041 5.21391 10.7661V21.9431C5.21391 22.1231 5.34591 22.2691 5.50891 22.2691L11.8309 22.2831C11.9159 22.2831 11.9979 22.3101 12.0649 22.3591L11.9609 22.2831C11.8589 22.2091 11.7869 22.0801 11.7869 21.9551C11.7869 21.8301 11.8329 21.7011 11.9329 21.6271L12.0279 21.5571C11.9609 21.6061 11.8789 21.6311 11.7949 21.6311L6.20291 21.6191C5.98291 21.6171 5.80591 21.4391 5.80591 21.2211V8.85209C5.80591 8.58209 5.47191 8.42009 5.28891 8.63309L4.62891 9.41709C4.47891 9.59809 4.17291 9.59909 4.02191 9.41709L1.67891 6.64409C1.55291 6.49609 1.55291 6.27909 1.67891 6.12909L2.21991 5.48909C2.29891 5.39609 2.41391 5.34009 2.53591 5.34809C2.65691 5.35209 2.77091 5.41209 2.84291 5.51009C2.89191 5.57609 2.96891 5.62509 3.06291 5.65009L3.09491 5.64809C3.21991 5.64709 3.33691 5.54209 3.36991 5.38609L3.54691 4.47309C3.51691 4.60809 3.41991 4.71709 3.28991 4.76309C3.15591 4.81109 3.00791 4.78309 2.89991 4.69009C2.77491 4.69009 2.65791 4.63109 2.58291 4.53109C2.50791 4.43109 2.48291 4.30209 2.51791 4.18109C2.39291 4.09109 2.33191 3.93809 2.35891 3.78609C2.38591 3.63909 2.49491 3.51709 2.63891 3.47509L1.90491 3.67509C1.73491 3.71509 1.62991 3.88709 1.65991 4.05609C1.67791 4.15809 1.73391 4.24109 1.81491 4.28709C1.91691 4.34809 1.98691 4.44709 2.00591 4.56309C2.02691 4.68009 1.99391 4.79909 1.91791 4.88909L0.834911 6.16909C0.734911 6.29009 0.735911 6.48609 0.839911 6.61109L4.10691 10.4751C4.19591 10.5791 4.43591 10.5871 4.52891 10.4891C4.60591 10.4121 4.70991 10.3681 4.81591 10.3681ZM6.60291 20.8241L11.6669 20.8361L12.6599 20.0981C12.8159 19.9751 13.0339 19.9031 13.2679 19.9031C13.6939 19.9031 14.0869 20.1301 14.2689 20.4831C14.3249 20.5901 14.3629 20.7061 14.3809 20.8231H17.3309V8.85209C17.3309 8.23309 17.8019 7.74109 18.4029 7.72909C18.7409 7.72909 19.0369 7.86609 19.2469 8.11309L19.6099 8.54309L20.0589 8.01409L20.3309 6.58409C20.3989 6.23109 20.6259 5.94209 20.9279 5.79309L17.9229 2.23809H15.2469C14.6919 3.73209 13.4059 4.71809 11.9669 4.72109C10.5279 4.71909 9.23991 3.73309 8.68391 2.23809H6.00791L4.43391 4.07409L4.14991 5.54209C4.03891 6.07509 3.59991 6.44209 3.07891 6.44209C3.05791 6.44209 2.94291 6.43209 2.92291 6.43009C2.79191 6.39809 2.67691 6.35509 2.57491 6.30009L2.50291 6.38709L4.32491 8.54309L4.68491 8.11809C4.89991 7.86809 5.19091 7.73109 5.50791 7.73109C6.11191 7.73109 6.60291 8.23409 6.60291 8.85209V20.8241Z" fill="#F8A71B"/>
</g>
<defs>
<clipPath id="clip0">
<rect width="24" height="24" fill="white"/>
</clipPath>
</defs>
</svg>
